{
	"asset":{
		"generator":"Khronos glTF Blender I/O v4.5.48",
		"version":"2.0"
	},
	"scene":0,
	"scenes":[
		{
			"name":"Scene",
			"nodes":[
				0,
				1,
				3,
				4,
				5,
				6,
				7,
				8
			]
		}
	],
	"nodes":[
		{
			"mesh":0,
			"name":"Cube.001",
			"scale":[
				0.5205077528953552,
				1.1491873264312744,
				0.5205077528953552
			],
			"translation":[
				1.4853451251983643,
				1.1151392459869385,
				1.041699767112732
			]
		},
		{
			"mesh":1,
			"name":"Chambre",
			"translation":[
				7.352456092834473,
				0,
				0
			]
		},
		{
			"mesh":2,
			"name":"HT_Coin_gauche",
			"rotation":[
				0,
				-0.8524942398071289,
				0,
				0.5227366089820862
			],
			"scale":[
				-0.027666445821523666,
				-0.15446826815605164,
				-0.22521856427192688
			],
			"translation":[
				-2.047612190246582,
				1.4847996234893799,
				-4.645760536193848
			]
		},
		{
			"children":[
				2
			],
			"mesh":3,
			"name":"coin gauche",
			"rotation":[
				0,
				0.8524942398071289,
				0,
				0.522736668586731
			],
			"translation":[
				-9.548293113708496,
				-0.2508189082145691,
				0
			]
		},
		{
			"mesh":4,
			"name":"mateo",
			"translation":[
				11.50070571899414,
				0,
				0
			]
		},
		{
			"mesh":5,
			"name":"Girl room",
			"rotation":[
				0,
				-0.09205911308526993,
				0,
				0.9957535266876221
			]
		},
		{
			"mesh":6,
			"name":"fond gauche",
			"translation":[
				-20.951295852661133,
				0,
				0
			]
		},
		{
			"mesh":7,
			"name":"Simon",
			"translation":[
				13.519231796264648,
				0,
				0
			]
		},
		{
			"mesh":8,
			"name":"Plane",
			"scale":[
				29.448152542114258,
				29.448152542114258,
				9.729934692382812
			],
			"translation":[
				-9.09024429321289,
				0.06578922271728516,
				0.9098625183105469
			]
		}
	],
	"materials":[
		{
			"name":"main.006",
			"pbrMetallicRoughness":{
				"baseColorTexture":{
					"index":0
				},
				"metallicFactor":0
			}
		},
		{
			"name":"main.007",
			"pbrMetallicRoughness":{
				"baseColorTexture":{
					"index":1
				},
				"metallicFactor":0
			}
		},
		{
			"name":"main.008",
			"pbrMetallicRoughness":{
				"baseColorTexture":{
					"index":2
				},
				"metallicFactor":0
			}
		},
		{
			"name":"main.009",
			"pbrMetallicRoughness":{
				"baseColorTexture":{
					"index":3
				},
				"metallicFactor":0
			}
		},
		{
			"name":"main.010",
			"pbrMetallicRoughness":{
				"baseColorTexture":{
					"index":4
				},
				"metallicFactor":0
			}
		},
		{
			"name":"main.011",
			"pbrMetallicRoughness":{
				"baseColorTexture":{
					"index":5
				},
				"metallicFactor":0
			}
		}
	],
	"meshes":[
		{
			"name":"Cube.003",
			"primitives":[
				{
					"attributes":{
						"POSITION":0,
						"NORMAL":1,
						"TEXCOORD_0":2,
						"TANGENT":3
					},
					"indices":4
				}
			]
		},
		{
			"name":"mesh.005",
			"primitives":[
				{
					"attributes":{
						"POSITION":5,
						"NORMAL":6,
						"TEXCOORD_0":7,
						"TANGENT":8
					},
					"indices":9,
					"material":0
				}
			]
		},
		{
			"name":"Cube.001",
			"primitives":[
				{
					"attributes":{
						"POSITION":10,
						"NORMAL":11,
						"TEXCOORD_0":12
					},
					"indices":13
				}
			]
		},
		{
			"name":"mesh.006",
			"primitives":[
				{
					"attributes":{
						"POSITION":14,
						"NORMAL":15,
						"TEXCOORD_0":16,
						"TANGENT":17
					},
					"indices":18,
					"material":1
				}
			]
		},
		{
			"name":"mesh.007",
			"primitives":[
				{
					"attributes":{
						"POSITION":19,
						"NORMAL":20,
						"TEXCOORD_0":21,
						"TANGENT":22
					},
					"indices":23,
					"material":2
				}
			]
		},
		{
			"name":"mesh.008",
			"primitives":[
				{
					"attributes":{
						"POSITION":24,
						"NORMAL":25,
						"TEXCOORD_0":26
					},
					"indices":27,
					"material":3
				}
			]
		},
		{
			"name":"mesh.009",
			"primitives":[
				{
					"attributes":{
						"POSITION":28,
						"NORMAL":29,
						"TEXCOORD_0":30,
						"TANGENT":31
					},
					"indices":32,
					"material":4
				}
			]
		},
		{
			"name":"mesh.010",
			"primitives":[
				{
					"attributes":{
						"POSITION":33,
						"NORMAL":34,
						"TEXCOORD_0":35,
						"TANGENT":36
					},
					"indices":37,
					"material":5
				}
			]
		},
		{
			"name":"Plane",
			"primitives":[
				{
					"attributes":{
						"POSITION":38,
						"NORMAL":39,
						"TEXCOORD_0":40,
						"TANGENT":41
					},
					"indices":42
				}
			]
		}
	],
	"textures":[
		{
			"sampler":0,
			"source":0
		},
		{
			"sampler":0,
			"source":1
		},
		{
			"sampler":0,
			"source":2
		},
		{
			"sampler":0,
			"source":3
		},
		{
			"sampler":0,
			"source":4
		},
		{
			"sampler":0,
			"source":5
		}
	],
	"images":[
		{
			"mimeType":"image/jpeg",
			"name":"texture.jpg.006",
			"uri":"../../Blender_project%20musea/textures/texture.jpg.006.jpg"
		},
		{
			"mimeType":"image/jpeg",
			"name":"texture.jpg.007",
			"uri":"../../Blender_project%20musea/textures/texture.jpg.007.jpg"
		},
		{
			"mimeType":"image/jpeg",
			"name":"texture.jpg.008",
			"uri":"../../Blender_project%20musea/textures/texture.jpg.008.jpg"
		},
		{
			"mimeType":"image/jpeg",
			"name":"texture.jpg.009",
			"uri":"../../Blender_project%20musea/textures/texture.jpg.009.jpg"
		},
		{
			"mimeType":"image/jpeg",
			"name":"texture.jpg.010",
			"uri":"../../Blender_project%20musea/textures/texture.jpg.010.jpg"
		},
		{
			"mimeType":"image/jpeg",
			"name":"texture.jpg.011",
			"uri":"../../Blender_project%20musea/textures/texture.jpg.011.jpg"
		}
	],
	"accessors":[
		{
			"bufferView":0,
			"componentType":5126,
			"count":194,
			"max":[
				5.3647966384887695,
				3.1902213096618652,
				6.0296735763549805
			],
			"min":[
				-12.567144393920898,
				-0.9742206335067749,
				-10.266494750976562
			],
			"type":"VEC3"
		},
		{
			"bufferView":1,
			"componentType":5126,
			"count":194,
			"type":"VEC3"
		},
		{
			"bufferView":2,
			"componentType":5126,
			"count":194,
			"type":"VEC2"
		},
		{
			"bufferView":3,
			"componentType":5126,
			"count":194,
			"type":"VEC4"
		},
		{
			"bufferView":4,
			"componentType":5123,
			"count":330,
			"type":"SCALAR"
		},
		{
			"bufferView":5,
			"componentType":5126,
			"count":1319447,
			"max":[
				2.6186683177948,
				2.4706521034240723,
				2.1852519512176514
			],
			"min":[
				-2.405552387237549,
				-0.023644328117370605,
				-2.0054538249969482
			],
			"type":"VEC3"
		},
		{
			"bufferView":6,
			"componentType":5126,
			"count":1319447,
			"type":"VEC3"
		},
		{
			"bufferView":7,
			"componentType":5126,
			"count":1319447,
			"type":"VEC2"
		},
		{
			"bufferView":8,
			"componentType":5126,
			"count":1319447,
			"type":"VEC4"
		},
		{
			"bufferView":9,
			"componentType":5125,
			"count":1319451,
			"type":"SCALAR"
		},
		{
			"bufferView":10,
			"componentType":5126,
			"count":876,
			"max":[
				3.5307464599609375,
				9.355536460876465,
				31.388961791992188
			],
			"min":[
				-387.1800231933594,
				-11.49824333190918,
				-10.662066459655762
			],
			"type":"VEC3"
		},
		{
			"bufferView":11,
			"componentType":5126,
			"count":876,
			"type":"VEC3"
		},
		{
			"bufferView":12,
			"componentType":5126,
			"count":876,
			"type":"VEC2"
		},
		{
			"bufferView":13,
			"componentType":5123,
			"count":1398,
			"type":"SCALAR"
		},
		{
			"bufferView":14,
			"componentType":5126,
			"count":993373,
			"max":[
				3.947582483291626,
				4.607429027557373,
				6.195292949676514
			],
			"min":[
				-3.4459407329559326,
				-0.08430266380310059,
				-5.308218002319336
			],
			"type":"VEC3"
		},
		{
			"bufferView":15,
			"componentType":5126,
			"count":993373,
			"type":"VEC3"
		},
		{
			"bufferView":16,
			"componentType":5126,
			"count":993373,
			"type":"VEC2"
		},
		{
			"bufferView":17,
			"componentType":5126,
			"count":993373,
			"type":"VEC4"
		},
		{
			"bufferView":18,
			"componentType":5125,
			"count":993549,
			"type":"SCALAR"
		},
		{
			"bufferView":19,
			"componentType":5126,
			"count":186021,
			"max":[
				0.7554477453231812,
				1.8069801330566406,
				0.6088910102844238
			],
			"min":[
				-1.0820939540863037,
				-0.010760068893432617,
				-0.6281318664550781
			],
			"type":"VEC3"
		},
		{
			"bufferView":20,
			"componentType":5126,
			"count":186021,
			"type":"VEC3"
		},
		{
			"bufferView":21,
			"componentType":5126,
			"count":186021,
			"type":"VEC2"
		},
		{
			"bufferView":22,
			"componentType":5126,
			"count":186021,
			"type":"VEC4"
		},
		{
			"bufferView":23,
			"componentType":5125,
			"count":186021,
			"type":"SCALAR"
		},
		{
			"bufferView":24,
			"componentType":5126,
			"count":1028100,
			"max":[
				5.061210632324219,
				2.5970940589904785,
				5.20449161529541
			],
			"min":[
				-5.398032188415527,
				-0.07549190521240234,
				-5.013258457183838
			],
			"type":"VEC3"
		},
		{
			"bufferView":25,
			"componentType":5126,
			"count":1028100,
			"type":"VEC3"
		},
		{
			"bufferView":26,
			"componentType":5126,
			"count":1028100,
			"type":"VEC2"
		},
		{
			"bufferView":27,
			"componentType":5125,
			"count":1055088,
			"type":"SCALAR"
		},
		{
			"bufferView":28,
			"componentType":5126,
			"count":965754,
			"max":[
				8.394329071044922,
				4.31551456451416,
				8.911481857299805
			],
			"min":[
				-7.799328327178955,
				-0.06621325016021729,
				-8.194459915161133
			],
			"type":"VEC3"
		},
		{
			"bufferView":29,
			"componentType":5126,
			"count":965754,
			"type":"VEC3"
		},
		{
			"bufferView":30,
			"componentType":5126,
			"count":965754,
			"type":"VEC2"
		},
		{
			"bufferView":31,
			"componentType":5126,
			"count":965754,
			"type":"VEC4"
		},
		{
			"bufferView":32,
			"componentType":5125,
			"count":965754,
			"type":"SCALAR"
		},
		{
			"bufferView":33,
			"componentType":5126,
			"count":57604,
			"max":[
				0.834237277507782,
				1.917862892150879,
				0.006082892417907715
			],
			"min":[
				-0.6626055836677551,
				0.051699280738830566,
				-0.7783259153366089
			],
			"type":"VEC3"
		},
		{
			"bufferView":34,
			"componentType":5126,
			"count":57604,
			"type":"VEC3"
		},
		{
			"bufferView":35,
			"componentType":5126,
			"count":57604,
			"type":"VEC2"
		},
		{
			"bufferView":36,
			"componentType":5126,
			"count":57604,
			"type":"VEC4"
		},
		{
			"bufferView":37,
			"componentType":5123,
			"count":57606,
			"type":"SCALAR"
		},
		{
			"bufferView":38,
			"componentType":5126,
			"count":4,
			"max":[
				1,
				0,
				1
			],
			"min":[
				-1,
				0,
				-1
			],
			"type":"VEC3"
		},
		{
			"bufferView":39,
			"componentType":5126,
			"count":4,
			"type":"VEC3"
		},
		{
			"bufferView":40,
			"componentType":5126,
			"count":4,
			"type":"VEC2"
		},
		{
			"bufferView":41,
			"componentType":5126,
			"count":4,
			"type":"VEC4"
		},
		{
			"bufferView":42,
			"componentType":5123,
			"count":6,
			"type":"SCALAR"
		}
	],
	"bufferViews":[
		{
			"buffer":0,
			"byteLength":2328,
			"byteOffset":0,
			"target":34962
		},
		{
			"buffer":0,
			"byteLength":2328,
			"byteOffset":2328,
			"target":34962
		},
		{
			"buffer":0,
			"byteLength":1552,
			"byteOffset":4656,
			"target":34962
		},
		{
			"buffer":0,
			"byteLength":3104,
			"byteOffset":6208,
			"target":34962
		},
		{
			"buffer":0,
			"byteLength":660,
			"byteOffset":9312,
			"target":34963
		},
		{
			"buffer":0,
			"byteLength":15833364,
			"byteOffset":9972,
			"target":34962
		},
		{
			"buffer":0,
			"byteLength":15833364,
			"byteOffset":15843336,
			"target":34962
		},
		{
			"buffer":0,
			"byteLength":10555576,
			"byteOffset":31676700,
			"target":34962
		},
		{
			"buffer":0,
			"byteLength":21111152,
			"byteOffset":42232276,
			"target":34962
		},
		{
			"buffer":0,
			"byteLength":5277804,
			"byteOffset":63343428,
			"target":34963
		},
		{
			"buffer":0,
			"byteLength":10512,
			"byteOffset":68621232,
			"target":34962
		},
		{
			"buffer":0,
			"byteLength":10512,
			"byteOffset":68631744,
			"target":34962
		},
		{
			"buffer":0,
			"byteLength":7008,
			"byteOffset":68642256,
			"target":34962
		},
		{
			"buffer":0,
			"byteLength":2796,
			"byteOffset":68649264,
			"target":34963
		},
		{
			"buffer":0,
			"byteLength":11920476,
			"byteOffset":68652060,
			"target":34962
		},
		{
			"buffer":0,
			"byteLength":11920476,
			"byteOffset":80572536,
			"target":34962
		},
		{
			"buffer":0,
			"byteLength":7946984,
			"byteOffset":92493012,
			"target":34962
		},
		{
			"buffer":0,
			"byteLength":15893968,
			"byteOffset":100439996,
			"target":34962
		},
		{
			"buffer":0,
			"byteLength":3974196,
			"byteOffset":116333964,
			"target":34963
		},
		{
			"buffer":0,
			"byteLength":2232252,
			"byteOffset":120308160,
			"target":34962
		},
		{
			"buffer":0,
			"byteLength":2232252,
			"byteOffset":122540412,
			"target":34962
		},
		{
			"buffer":0,
			"byteLength":1488168,
			"byteOffset":124772664,
			"target":34962
		},
		{
			"buffer":0,
			"byteLength":2976336,
			"byteOffset":126260832,
			"target":34962
		},
		{
			"buffer":0,
			"byteLength":744084,
			"byteOffset":129237168,
			"target":34963
		},
		{
			"buffer":0,
			"byteLength":12337200,
			"byteOffset":129981252,
			"target":34962
		},
		{
			"buffer":0,
			"byteLength":12337200,
			"byteOffset":142318452,
			"target":34962
		},
		{
			"buffer":0,
			"byteLength":8224800,
			"byteOffset":154655652,
			"target":34962
		},
		{
			"buffer":0,
			"byteLength":4220352,
			"byteOffset":162880452,
			"target":34963
		},
		{
			"buffer":0,
			"byteLength":11589048,
			"byteOffset":167100804,
			"target":34962
		},
		{
			"buffer":0,
			"byteLength":11589048,
			"byteOffset":178689852,
			"target":34962
		},
		{
			"buffer":0,
			"byteLength":7726032,
			"byteOffset":190278900,
			"target":34962
		},
		{
			"buffer":0,
			"byteLength":15452064,
			"byteOffset":198004932,
			"target":34962
		},
		{
			"buffer":0,
			"byteLength":3863016,
			"byteOffset":213456996,
			"target":34963
		},
		{
			"buffer":0,
			"byteLength":691248,
			"byteOffset":217320012,
			"target":34962
		},
		{
			"buffer":0,
			"byteLength":691248,
			"byteOffset":218011260,
			"target":34962
		},
		{
			"buffer":0,
			"byteLength":460832,
			"byteOffset":218702508,
			"target":34962
		},
		{
			"buffer":0,
			"byteLength":921664,
			"byteOffset":219163340,
			"target":34962
		},
		{
			"buffer":0,
			"byteLength":115212,
			"byteOffset":220085004,
			"target":34963
		},
		{
			"buffer":0,
			"byteLength":48,
			"byteOffset":220200216,
			"target":34962
		},
		{
			"buffer":0,
			"byteLength":48,
			"byteOffset":220200264,
			"target":34962
		},
		{
			"buffer":0,
			"byteLength":32,
			"byteOffset":220200312,
			"target":34962
		},
		{
			"buffer":0,
			"byteLength":64,
			"byteOffset":220200344,
			"target":34962
		},
		{
			"buffer":0,
			"byteLength":12,
			"byteOffset":220200408,
			"target":34963
		}
	],
	"samplers":[
		{
			"magFilter":9729,
			"minFilter":9987
		}
	],
	"buffers":[
		{
			"byteLength":220200420,
			"uri":"Musea-eb52ceb1f93fad987beafddbc542c758.bin"
		}
	]
}
