{
	"asset":{
		"generator":"Khronos glTF Blender I/O v4.5.48",
		"version":"2.0"
	},
	"scene":0,
	"scenes":[
		{
			"name":"Scene",
			"nodes":[
				0,
				1,
				2,
				4,
				5,
				6,
				7
			]
		}
	],
	"nodes":[
		{
			"mesh":0,
			"name":"mesh",
			"translation":[
				7.352456092834473,
				0,
				0
			]
		},
		{
			"mesh":1,
			"name":"mesh.001",
			"translation":[
				-9.548293113708496,
				0,
				0
			]
		},
		{
			"mesh":2,
			"name":"mesh.002",
			"translation":[
				11.50070571899414,
				0,
				0
			]
		},
		{
			"mesh":3,
			"name":"Untitled",
			"rotation":[
				0.7041040658950806,
				0.06509563326835632,
				-0.06509562581777573,
				0.7041041851043701
			]
		},
		{
			"children":[
				3
			],
			"mesh":4,
			"name":"mesh.003",
			"rotation":[
				0,
				-0.09205911308526993,
				0,
				0.9957535266876221
			]
		},
		{
			"mesh":5,
			"name":"mesh.004",
			"translation":[
				-20.951295852661133,
				0,
				0
			]
		},
		{
			"mesh":6,
			"name":"mesh.375",
			"translation":[
				13.519231796264648,
				0,
				0
			]
		},
		{
			"mesh":7,
			"name":"Plane",
			"scale":[
				29.448152542114258,
				29.448152542114258,
				9.729934692382812
			],
			"translation":[
				-9.09024429321289,
				0.06578922271728516,
				0.9098625183105469
			]
		}
	],
	"materials":[
		{
			"name":"main.006",
			"pbrMetallicRoughness":{
				"baseColorTexture":{
					"index":0
				},
				"metallicFactor":0
			}
		},
		{
			"name":"main.007",
			"pbrMetallicRoughness":{
				"baseColorTexture":{
					"index":1
				},
				"metallicFactor":0
			}
		},
		{
			"name":"main.008",
			"pbrMetallicRoughness":{
				"baseColorTexture":{
					"index":2
				},
				"metallicFactor":0
			}
		},
		{
			"name":"main.009",
			"pbrMetallicRoughness":{
				"baseColorTexture":{
					"index":3
				},
				"metallicFactor":0
			}
		},
		{
			"name":"main.010",
			"pbrMetallicRoughness":{
				"baseColorTexture":{
					"index":4
				},
				"metallicFactor":0
			}
		},
		{
			"name":"main.011",
			"pbrMetallicRoughness":{
				"baseColorTexture":{
					"index":5
				},
				"metallicFactor":0
			}
		}
	],
	"meshes":[
		{
			"name":"mesh.005",
			"primitives":[
				{
					"attributes":{
						"POSITION":0,
						"NORMAL":1,
						"TEXCOORD_0":2,
						"TANGENT":3
					},
					"indices":4,
					"material":0
				}
			]
		},
		{
			"name":"mesh.006",
			"primitives":[
				{
					"attributes":{
						"POSITION":5,
						"NORMAL":6,
						"TEXCOORD_0":7,
						"TANGENT":8
					},
					"indices":9,
					"material":1
				}
			]
		},
		{
			"name":"mesh.007",
			"primitives":[
				{
					"attributes":{
						"POSITION":10,
						"NORMAL":11,
						"TEXCOORD_0":12,
						"TANGENT":13
					},
					"indices":14,
					"material":2
				}
			]
		},
		{
			"name":"Untitled",
			"primitives":[
				{
					"attributes":{
						"POSITION":15,
						"NORMAL":16
					},
					"indices":17
				}
			]
		},
		{
			"name":"mesh.008",
			"primitives":[
				{
					"attributes":{
						"POSITION":18,
						"NORMAL":19,
						"TEXCOORD_0":20
					},
					"indices":21,
					"material":3
				}
			]
		},
		{
			"name":"mesh.009",
			"primitives":[
				{
					"attributes":{
						"POSITION":22,
						"NORMAL":23,
						"TEXCOORD_0":24,
						"TANGENT":25
					},
					"indices":26,
					"material":4
				}
			]
		},
		{
			"name":"mesh.010",
			"primitives":[
				{
					"attributes":{
						"POSITION":27,
						"NORMAL":28,
						"TEXCOORD_0":29,
						"TANGENT":30
					},
					"indices":31,
					"material":5
				}
			]
		},
		{
			"name":"Plane",
			"primitives":[
				{
					"attributes":{
						"POSITION":32,
						"NORMAL":33,
						"TEXCOORD_0":34,
						"TANGENT":35
					},
					"indices":36
				}
			]
		}
	],
	"textures":[
		{
			"sampler":0,
			"source":0
		},
		{
			"sampler":0,
			"source":1
		},
		{
			"sampler":0,
			"source":2
		},
		{
			"sampler":0,
			"source":3
		},
		{
			"sampler":0,
			"source":4
		},
		{
			"sampler":0,
			"source":5
		}
	],
	"images":[
		{
			"mimeType":"image/jpeg",
			"name":"texture.jpg.006",
			"uri":"../../Blender_project%20musea/textures/texture.jpg.006.jpg"
		},
		{
			"mimeType":"image/jpeg",
			"name":"texture.jpg.007",
			"uri":"../../Blender_project%20musea/textures/texture.jpg.007.jpg"
		},
		{
			"mimeType":"image/jpeg",
			"name":"texture.jpg.008",
			"uri":"../../Blender_project%20musea/textures/texture.jpg.008.jpg"
		},
		{
			"mimeType":"image/jpeg",
			"name":"texture.jpg.009",
			"uri":"../../Blender_project%20musea/textures/texture.jpg.009.jpg"
		},
		{
			"mimeType":"image/jpeg",
			"name":"texture.jpg.010",
			"uri":"../../Blender_project%20musea/textures/texture.jpg.010.jpg"
		},
		{
			"mimeType":"image/jpeg",
			"name":"texture.jpg.011",
			"uri":"../../Blender_project%20musea/textures/texture.jpg.011.jpg"
		}
	],
	"accessors":[
		{
			"bufferView":0,
			"componentType":5126,
			"count":1319447,
			"max":[
				2.6186683177948,
				2.4706521034240723,
				2.1852519512176514
			],
			"min":[
				-2.405552387237549,
				-0.023644328117370605,
				-2.0054538249969482
			],
			"type":"VEC3"
		},
		{
			"bufferView":1,
			"componentType":5126,
			"count":1319447,
			"type":"VEC3"
		},
		{
			"bufferView":2,
			"componentType":5126,
			"count":1319447,
			"type":"VEC2"
		},
		{
			"bufferView":3,
			"componentType":5126,
			"count":1319447,
			"type":"VEC4"
		},
		{
			"bufferView":4,
			"componentType":5125,
			"count":1319451,
			"type":"SCALAR"
		},
		{
			"bufferView":5,
			"componentType":5126,
			"count":993511,
			"max":[
				3.947582483291626,
				4.607429027557373,
				6.195292949676514
			],
			"min":[
				-3.947582483291626,
				-0.08430266380310059,
				-5.308218002319336
			],
			"type":"VEC3"
		},
		{
			"bufferView":6,
			"componentType":5126,
			"count":993511,
			"type":"VEC3"
		},
		{
			"bufferView":7,
			"componentType":5126,
			"count":993511,
			"type":"VEC2"
		},
		{
			"bufferView":8,
			"componentType":5126,
			"count":993511,
			"type":"VEC4"
		},
		{
			"bufferView":9,
			"componentType":5125,
			"count":993687,
			"type":"SCALAR"
		},
		{
			"bufferView":10,
			"componentType":5126,
			"count":186021,
			"max":[
				0.7554477453231812,
				1.8069801330566406,
				0.6088910102844238
			],
			"min":[
				-1.0820939540863037,
				-0.010760068893432617,
				-0.6281318664550781
			],
			"type":"VEC3"
		},
		{
			"bufferView":11,
			"componentType":5126,
			"count":186021,
			"type":"VEC3"
		},
		{
			"bufferView":12,
			"componentType":5126,
			"count":186021,
			"type":"VEC2"
		},
		{
			"bufferView":13,
			"componentType":5126,
			"count":186021,
			"type":"VEC4"
		},
		{
			"bufferView":14,
			"componentType":5125,
			"count":186021,
			"type":"SCALAR"
		},
		{
			"bufferView":15,
			"componentType":5126,
			"count":21641,
			"max":[
				4.455659866333008,
				4.418290138244629,
				0.06585279852151871
			],
			"min":[
				-4.78863000869751,
				-4.437880039215088,
				-2.6815500259399414
			],
			"type":"VEC3"
		},
		{
			"bufferView":16,
			"componentType":5126,
			"count":21641,
			"type":"VEC3"
		},
		{
			"bufferView":17,
			"componentType":5123,
			"count":25227,
			"type":"SCALAR"
		},
		{
			"bufferView":18,
			"componentType":5126,
			"count":1028100,
			"max":[
				5.061210632324219,
				2.5970940589904785,
				5.20449161529541
			],
			"min":[
				-5.398032188415527,
				-0.07549190521240234,
				-5.013258457183838
			],
			"type":"VEC3"
		},
		{
			"bufferView":19,
			"componentType":5126,
			"count":1028100,
			"type":"VEC3"
		},
		{
			"bufferView":20,
			"componentType":5126,
			"count":1028100,
			"type":"VEC2"
		},
		{
			"bufferView":21,
			"componentType":5125,
			"count":1055088,
			"type":"SCALAR"
		},
		{
			"bufferView":22,
			"componentType":5126,
			"count":965754,
			"max":[
				8.394329071044922,
				4.31551456451416,
				8.911481857299805
			],
			"min":[
				-7.799328327178955,
				-0.06621325016021729,
				-8.194459915161133
			],
			"type":"VEC3"
		},
		{
			"bufferView":23,
			"componentType":5126,
			"count":965754,
			"type":"VEC3"
		},
		{
			"bufferView":24,
			"componentType":5126,
			"count":965754,
			"type":"VEC2"
		},
		{
			"bufferView":25,
			"componentType":5126,
			"count":965754,
			"type":"VEC4"
		},
		{
			"bufferView":26,
			"componentType":5125,
			"count":965754,
			"type":"SCALAR"
		},
		{
			"bufferView":27,
			"componentType":5126,
			"count":57604,
			"max":[
				0.834237277507782,
				1.917862892150879,
				0.006082892417907715
			],
			"min":[
				-0.6626055836677551,
				0.051699280738830566,
				-0.7783259153366089
			],
			"type":"VEC3"
		},
		{
			"bufferView":28,
			"componentType":5126,
			"count":57604,
			"type":"VEC3"
		},
		{
			"bufferView":29,
			"componentType":5126,
			"count":57604,
			"type":"VEC2"
		},
		{
			"bufferView":30,
			"componentType":5126,
			"count":57604,
			"type":"VEC4"
		},
		{
			"bufferView":31,
			"componentType":5123,
			"count":57606,
			"type":"SCALAR"
		},
		{
			"bufferView":32,
			"componentType":5126,
			"count":4,
			"max":[
				1,
				0,
				1
			],
			"min":[
				-1,
				0,
				-1
			],
			"type":"VEC3"
		},
		{
			"bufferView":33,
			"componentType":5126,
			"count":4,
			"type":"VEC3"
		},
		{
			"bufferView":34,
			"componentType":5126,
			"count":4,
			"type":"VEC2"
		},
		{
			"bufferView":35,
			"componentType":5126,
			"count":4,
			"type":"VEC4"
		},
		{
			"bufferView":36,
			"componentType":5123,
			"count":6,
			"type":"SCALAR"
		}
	],
	"bufferViews":[
		{
			"buffer":0,
			"byteLength":15833364,
			"byteOffset":0,
			"target":34962
		},
		{
			"buffer":0,
			"byteLength":15833364,
			"byteOffset":15833364,
			"target":34962
		},
		{
			"buffer":0,
			"byteLength":10555576,
			"byteOffset":31666728,
			"target":34962
		},
		{
			"buffer":0,
			"byteLength":21111152,
			"byteOffset":42222304,
			"target":34962
		},
		{
			"buffer":0,
			"byteLength":5277804,
			"byteOffset":63333456,
			"target":34963
		},
		{
			"buffer":0,
			"byteLength":11922132,
			"byteOffset":68611260,
			"target":34962
		},
		{
			"buffer":0,
			"byteLength":11922132,
			"byteOffset":80533392,
			"target":34962
		},
		{
			"buffer":0,
			"byteLength":7948088,
			"byteOffset":92455524,
			"target":34962
		},
		{
			"buffer":0,
			"byteLength":15896176,
			"byteOffset":100403612,
			"target":34962
		},
		{
			"buffer":0,
			"byteLength":3974748,
			"byteOffset":116299788,
			"target":34963
		},
		{
			"buffer":0,
			"byteLength":2232252,
			"byteOffset":120274536,
			"target":34962
		},
		{
			"buffer":0,
			"byteLength":2232252,
			"byteOffset":122506788,
			"target":34962
		},
		{
			"buffer":0,
			"byteLength":1488168,
			"byteOffset":124739040,
			"target":34962
		},
		{
			"buffer":0,
			"byteLength":2976336,
			"byteOffset":126227208,
			"target":34962
		},
		{
			"buffer":0,
			"byteLength":744084,
			"byteOffset":129203544,
			"target":34963
		},
		{
			"buffer":0,
			"byteLength":259692,
			"byteOffset":129947628,
			"target":34962
		},
		{
			"buffer":0,
			"byteLength":259692,
			"byteOffset":130207320,
			"target":34962
		},
		{
			"buffer":0,
			"byteLength":50454,
			"byteOffset":130467012,
			"target":34963
		},
		{
			"buffer":0,
			"byteLength":12337200,
			"byteOffset":130517468,
			"target":34962
		},
		{
			"buffer":0,
			"byteLength":12337200,
			"byteOffset":142854668,
			"target":34962
		},
		{
			"buffer":0,
			"byteLength":8224800,
			"byteOffset":155191868,
			"target":34962
		},
		{
			"buffer":0,
			"byteLength":4220352,
			"byteOffset":163416668,
			"target":34963
		},
		{
			"buffer":0,
			"byteLength":11589048,
			"byteOffset":167637020,
			"target":34962
		},
		{
			"buffer":0,
			"byteLength":11589048,
			"byteOffset":179226068,
			"target":34962
		},
		{
			"buffer":0,
			"byteLength":7726032,
			"byteOffset":190815116,
			"target":34962
		},
		{
			"buffer":0,
			"byteLength":15452064,
			"byteOffset":198541148,
			"target":34962
		},
		{
			"buffer":0,
			"byteLength":3863016,
			"byteOffset":213993212,
			"target":34963
		},
		{
			"buffer":0,
			"byteLength":691248,
			"byteOffset":217856228,
			"target":34962
		},
		{
			"buffer":0,
			"byteLength":691248,
			"byteOffset":218547476,
			"target":34962
		},
		{
			"buffer":0,
			"byteLength":460832,
			"byteOffset":219238724,
			"target":34962
		},
		{
			"buffer":0,
			"byteLength":921664,
			"byteOffset":219699556,
			"target":34962
		},
		{
			"buffer":0,
			"byteLength":115212,
			"byteOffset":220621220,
			"target":34963
		},
		{
			"buffer":0,
			"byteLength":48,
			"byteOffset":220736432,
			"target":34962
		},
		{
			"buffer":0,
			"byteLength":48,
			"byteOffset":220736480,
			"target":34962
		},
		{
			"buffer":0,
			"byteLength":32,
			"byteOffset":220736528,
			"target":34962
		},
		{
			"buffer":0,
			"byteLength":64,
			"byteOffset":220736560,
			"target":34962
		},
		{
			"buffer":0,
			"byteLength":12,
			"byteOffset":220736624,
			"target":34963
		}
	],
	"samplers":[
		{
			"magFilter":9729,
			"minFilter":9987
		}
	],
	"buffers":[
		{
			"byteLength":220736636,
			"uri":"Musea-eb52ceb1f93fad987beafddbc542c758.bin"
		}
	]
}
